<mxfile host="www.draw.io" modified="2020-01-14T03:03:26.202Z" agent="Mozilla/5.0 (Windows NT 10.0; Win64; x64) AppleWebKit/537.36 (KHTML, like Gecko) Chrome/79.0.3945.88 Safari/537.36" etag="PuKHw-VcTJNaGjOawn5D" version="12.5.1" type="github">
  <diagram id="L1jbM8mW93wAwY44JAMb" name="Page-1">
    <mxGraphModel dx="1673" dy="896" grid="1" gridSize="10" guides="1" tooltips="1" connect="1" arrows="1" fold="1" page="1" pageScale="1" pageWidth="850" pageHeight="1100" math="0" shadow="0">
      <root>
        <mxCell id="0"/>
        <mxCell id="1" parent="0"/>
        <mxCell id="L1meJ5uZWwkOYdYvXUN--8" value="24v" style="edgeStyle=orthogonalEdgeStyle;rounded=0;orthogonalLoop=1;jettySize=auto;html=1;exitX=0.25;exitY=0;exitDx=0;exitDy=0;entryX=0.25;entryY=1;entryDx=0;entryDy=0;labelPosition=center;verticalLabelPosition=middle;align=center;verticalAlign=middle;horizontal=0;" edge="1" parent="1" source="L1meJ5uZWwkOYdYvXUN--1" target="L1meJ5uZWwkOYdYvXUN--2">
          <mxGeometry relative="1" as="geometry"/>
        </mxCell>
        <mxCell id="L1meJ5uZWwkOYdYvXUN--1" value="Stepper Controller 1" style="rounded=0;whiteSpace=wrap;html=1;fillColor=#ffe6cc;strokeColor=#d79b00;" vertex="1" parent="1">
          <mxGeometry x="240" y="560" width="160" height="40" as="geometry"/>
        </mxCell>
        <mxCell id="L1meJ5uZWwkOYdYvXUN--2" value="Stepper Controller 2" style="rounded=0;whiteSpace=wrap;html=1;fillColor=#d5e8d4;strokeColor=#82b366;" vertex="1" parent="1">
          <mxGeometry x="240" y="470" width="160" height="40" as="geometry"/>
        </mxCell>
        <mxCell id="L1meJ5uZWwkOYdYvXUN--3" value="Stepper Controller 3" style="rounded=0;whiteSpace=wrap;html=1;fillColor=#fff2cc;strokeColor=#d6b656;" vertex="1" parent="1">
          <mxGeometry x="240" y="380" width="160" height="40" as="geometry"/>
        </mxCell>
        <mxCell id="L1meJ5uZWwkOYdYvXUN--4" value="Servo Controller 1" style="rounded=0;whiteSpace=wrap;html=1;fillColor=#dae8fc;strokeColor=#6c8ebf;" vertex="1" parent="1">
          <mxGeometry x="240" y="290" width="160" height="40" as="geometry"/>
        </mxCell>
        <mxCell id="L1meJ5uZWwkOYdYvXUN--5" value="Servo Controller 2" style="rounded=0;whiteSpace=wrap;html=1;fillColor=#f8cecc;strokeColor=#b85450;" vertex="1" parent="1">
          <mxGeometry x="240" y="200" width="160" height="40" as="geometry"/>
        </mxCell>
        <mxCell id="L1meJ5uZWwkOYdYvXUN--6" value="Servo Controller 3" style="rounded=0;whiteSpace=wrap;html=1;fillColor=#e1d5e7;strokeColor=#9673a6;" vertex="1" parent="1">
          <mxGeometry x="240" y="110" width="160" height="40" as="geometry"/>
        </mxCell>
        <mxCell id="L1meJ5uZWwkOYdYvXUN--9" value="10v" style="edgeStyle=orthogonalEdgeStyle;rounded=0;orthogonalLoop=1;jettySize=auto;html=1;exitX=0.25;exitY=0;exitDx=0;exitDy=0;labelPosition=center;verticalLabelPosition=middle;align=center;verticalAlign=middle;horizontal=0;" edge="1" parent="1">
          <mxGeometry relative="1" as="geometry">
            <mxPoint x="299.9971428571429" y="559.9957142857144" as="sourcePoint"/>
            <mxPoint x="300" y="510" as="targetPoint"/>
            <Array as="points">
              <mxPoint x="300" y="540"/>
              <mxPoint x="300" y="540"/>
            </Array>
          </mxGeometry>
        </mxCell>
        <mxCell id="L1meJ5uZWwkOYdYvXUN--14" value="5V" style="edgeStyle=orthogonalEdgeStyle;rounded=0;orthogonalLoop=1;jettySize=auto;html=1;exitX=0.25;exitY=0;exitDx=0;exitDy=0;labelPosition=center;verticalLabelPosition=middle;align=center;verticalAlign=middle;horizontal=0;" edge="1" parent="1">
          <mxGeometry relative="1" as="geometry">
            <mxPoint x="319.7971428571429" y="560.1957142857144" as="sourcePoint"/>
            <mxPoint x="319.8" y="510.2" as="targetPoint"/>
            <Array as="points">
              <mxPoint x="319.8" y="520.2"/>
              <mxPoint x="319.8" y="520.2"/>
            </Array>
          </mxGeometry>
        </mxCell>
        <mxCell id="L1meJ5uZWwkOYdYvXUN--15" value="DATA" style="edgeStyle=orthogonalEdgeStyle;rounded=0;orthogonalLoop=1;jettySize=auto;html=1;exitX=0.25;exitY=0;exitDx=0;exitDy=0;labelPosition=center;verticalLabelPosition=middle;align=center;verticalAlign=middle;horizontal=0;" edge="1" parent="1">
          <mxGeometry relative="1" as="geometry">
            <mxPoint x="340" y="560" as="sourcePoint"/>
            <mxPoint x="340.4" y="510.00000000000006" as="targetPoint"/>
            <Array as="points">
              <mxPoint x="340.2" y="520"/>
              <mxPoint x="340.2" y="520"/>
            </Array>
          </mxGeometry>
        </mxCell>
        <mxCell id="L1meJ5uZWwkOYdYvXUN--16" value="GND" style="edgeStyle=orthogonalEdgeStyle;rounded=0;orthogonalLoop=1;jettySize=auto;html=1;exitX=0.25;exitY=0;exitDx=0;exitDy=0;labelPosition=center;verticalLabelPosition=middle;align=center;verticalAlign=middle;horizontal=0;" edge="1" parent="1">
          <mxGeometry relative="1" as="geometry">
            <mxPoint x="360" y="560" as="sourcePoint"/>
            <mxPoint x="360.4" y="510.00000000000006" as="targetPoint"/>
            <Array as="points">
              <mxPoint x="360.2" y="520"/>
              <mxPoint x="360.2" y="520"/>
            </Array>
          </mxGeometry>
        </mxCell>
        <mxCell id="L1meJ5uZWwkOYdYvXUN--21" value="24v" style="edgeStyle=orthogonalEdgeStyle;rounded=0;orthogonalLoop=1;jettySize=auto;html=1;exitX=0.25;exitY=0;exitDx=0;exitDy=0;entryX=0.25;entryY=1;entryDx=0;entryDy=0;labelPosition=center;verticalLabelPosition=middle;align=center;verticalAlign=middle;horizontal=0;" edge="1" parent="1">
          <mxGeometry relative="1" as="geometry">
            <mxPoint x="279.757619047619" y="469.99523809523805" as="sourcePoint"/>
            <mxPoint x="279.757619047619" y="419.99523809523805" as="targetPoint"/>
          </mxGeometry>
        </mxCell>
        <mxCell id="L1meJ5uZWwkOYdYvXUN--22" value="10v" style="edgeStyle=orthogonalEdgeStyle;rounded=0;orthogonalLoop=1;jettySize=auto;html=1;exitX=0.25;exitY=0;exitDx=0;exitDy=0;labelPosition=center;verticalLabelPosition=middle;align=center;verticalAlign=middle;horizontal=0;" edge="1" parent="1">
          <mxGeometry relative="1" as="geometry">
            <mxPoint x="299.70714285714286" y="469.89571428571435" as="sourcePoint"/>
            <mxPoint x="299.71" y="419.9" as="targetPoint"/>
          </mxGeometry>
        </mxCell>
        <mxCell id="L1meJ5uZWwkOYdYvXUN--23" value="5V" style="edgeStyle=orthogonalEdgeStyle;rounded=0;orthogonalLoop=1;jettySize=auto;html=1;exitX=0.25;exitY=0;exitDx=0;exitDy=0;labelPosition=center;verticalLabelPosition=middle;align=center;verticalAlign=middle;horizontal=0;" edge="1" parent="1">
          <mxGeometry relative="1" as="geometry">
            <mxPoint x="319.28142857142853" y="469.99523809523805" as="sourcePoint"/>
            <mxPoint x="319.28142857142853" y="419.99523809523805" as="targetPoint"/>
            <Array as="points">
              <mxPoint x="319.51" y="430.1"/>
              <mxPoint x="319.51" y="430.1"/>
            </Array>
          </mxGeometry>
        </mxCell>
        <mxCell id="L1meJ5uZWwkOYdYvXUN--24" value="DATA" style="edgeStyle=orthogonalEdgeStyle;rounded=0;orthogonalLoop=1;jettySize=auto;html=1;exitX=0.25;exitY=0;exitDx=0;exitDy=0;labelPosition=center;verticalLabelPosition=middle;align=center;verticalAlign=middle;horizontal=0;" edge="1" parent="1">
          <mxGeometry relative="1" as="geometry">
            <mxPoint x="339.757619047619" y="469.99523809523805" as="sourcePoint"/>
            <mxPoint x="340.2338095238095" y="419.99523809523805" as="targetPoint"/>
            <Array as="points">
              <mxPoint x="339.90999999999997" y="429.9"/>
              <mxPoint x="339.90999999999997" y="429.9"/>
            </Array>
          </mxGeometry>
        </mxCell>
        <mxCell id="L1meJ5uZWwkOYdYvXUN--25" value="GND" style="edgeStyle=orthogonalEdgeStyle;rounded=0;orthogonalLoop=1;jettySize=auto;html=1;exitX=0.25;exitY=0;exitDx=0;exitDy=0;labelPosition=center;verticalLabelPosition=middle;align=center;verticalAlign=middle;horizontal=0;" edge="1" parent="1">
          <mxGeometry relative="1" as="geometry">
            <mxPoint x="359.757619047619" y="469.99523809523805" as="sourcePoint"/>
            <mxPoint x="360.2338095238095" y="419.99523809523805" as="targetPoint"/>
            <Array as="points">
              <mxPoint x="359.90999999999997" y="429.9"/>
              <mxPoint x="359.90999999999997" y="429.9"/>
            </Array>
          </mxGeometry>
        </mxCell>
        <mxCell id="L1meJ5uZWwkOYdYvXUN--31" value="10v" style="edgeStyle=orthogonalEdgeStyle;rounded=0;orthogonalLoop=1;jettySize=auto;html=1;exitX=0.25;exitY=0;exitDx=0;exitDy=0;labelPosition=center;verticalLabelPosition=middle;align=center;verticalAlign=middle;horizontal=0;" edge="1" parent="1">
          <mxGeometry relative="1" as="geometry">
            <mxPoint x="299.68952380952385" y="379.89571428571435" as="sourcePoint"/>
            <mxPoint x="299.692380952381" y="329.9" as="targetPoint"/>
            <Array as="points">
              <mxPoint x="300" y="355"/>
            </Array>
          </mxGeometry>
        </mxCell>
        <mxCell id="L1meJ5uZWwkOYdYvXUN--33" value="DATA" style="edgeStyle=orthogonalEdgeStyle;rounded=0;orthogonalLoop=1;jettySize=auto;html=1;exitX=0.25;exitY=0;exitDx=0;exitDy=0;labelPosition=center;verticalLabelPosition=middle;align=center;verticalAlign=middle;horizontal=0;" edge="1" parent="1">
          <mxGeometry relative="1" as="geometry">
            <mxPoint x="339.74" y="379.99523809523805" as="sourcePoint"/>
            <mxPoint x="340.2161904761905" y="329.99523809523805" as="targetPoint"/>
            <Array as="points">
              <mxPoint x="339.89238095238096" y="339.9"/>
              <mxPoint x="339.89238095238096" y="339.9"/>
            </Array>
          </mxGeometry>
        </mxCell>
        <mxCell id="L1meJ5uZWwkOYdYvXUN--34" value="GND" style="edgeStyle=orthogonalEdgeStyle;rounded=0;orthogonalLoop=1;jettySize=auto;html=1;exitX=0.25;exitY=0;exitDx=0;exitDy=0;labelPosition=center;verticalLabelPosition=middle;align=center;verticalAlign=middle;horizontal=0;" edge="1" parent="1">
          <mxGeometry relative="1" as="geometry">
            <mxPoint x="359.74" y="379.99523809523805" as="sourcePoint"/>
            <mxPoint x="360.2161904761905" y="329.99523809523805" as="targetPoint"/>
            <Array as="points">
              <mxPoint x="359.89238095238096" y="339.9"/>
              <mxPoint x="359.89238095238096" y="339.9"/>
            </Array>
          </mxGeometry>
        </mxCell>
        <mxCell id="L1meJ5uZWwkOYdYvXUN--36" value="10v" style="edgeStyle=orthogonalEdgeStyle;rounded=0;orthogonalLoop=1;jettySize=auto;html=1;exitX=0.25;exitY=0;exitDx=0;exitDy=0;labelPosition=center;verticalLabelPosition=middle;align=center;verticalAlign=middle;horizontal=0;" edge="1" parent="1">
          <mxGeometry relative="1" as="geometry">
            <mxPoint x="299.7171428571429" y="289.71428571428567" as="sourcePoint"/>
            <mxPoint x="299.7171428571429" y="240" as="targetPoint"/>
            <Array as="points">
              <mxPoint x="299.86" y="265"/>
            </Array>
          </mxGeometry>
        </mxCell>
        <mxCell id="L1meJ5uZWwkOYdYvXUN--37" value="DATA" style="edgeStyle=orthogonalEdgeStyle;rounded=0;orthogonalLoop=1;jettySize=auto;html=1;exitX=0.25;exitY=0;exitDx=0;exitDy=0;labelPosition=center;verticalLabelPosition=middle;align=center;verticalAlign=middle;horizontal=0;" edge="1" parent="1">
          <mxGeometry relative="1" as="geometry">
            <mxPoint x="339.7171428571429" y="289.71428571428567" as="sourcePoint"/>
            <mxPoint x="340.28857142857146" y="240" as="targetPoint"/>
            <Array as="points">
              <mxPoint x="339.752380952381" y="249.89999999999998"/>
              <mxPoint x="339.752380952381" y="249.89999999999998"/>
            </Array>
          </mxGeometry>
        </mxCell>
        <mxCell id="L1meJ5uZWwkOYdYvXUN--38" value="GND" style="edgeStyle=orthogonalEdgeStyle;rounded=0;orthogonalLoop=1;jettySize=auto;html=1;exitX=0.25;exitY=0;exitDx=0;exitDy=0;labelPosition=center;verticalLabelPosition=middle;align=center;verticalAlign=middle;horizontal=0;" edge="1" parent="1">
          <mxGeometry relative="1" as="geometry">
            <mxPoint x="359.7171428571429" y="289.71428571428567" as="sourcePoint"/>
            <mxPoint x="360.28857142857146" y="240" as="targetPoint"/>
            <Array as="points">
              <mxPoint x="359.752380952381" y="249.89999999999998"/>
              <mxPoint x="359.752380952381" y="249.89999999999998"/>
            </Array>
          </mxGeometry>
        </mxCell>
        <mxCell id="L1meJ5uZWwkOYdYvXUN--42" value="10v" style="edgeStyle=orthogonalEdgeStyle;rounded=0;orthogonalLoop=1;jettySize=auto;html=1;exitX=0.25;exitY=0;exitDx=0;exitDy=0;labelPosition=center;verticalLabelPosition=middle;align=center;verticalAlign=middle;horizontal=0;" edge="1" parent="1">
          <mxGeometry relative="1" as="geometry">
            <mxPoint x="299.9971428571429" y="200.10428571428568" as="sourcePoint"/>
            <mxPoint x="299.9971428571429" y="150.39000000000001" as="targetPoint"/>
            <Array as="points">
              <mxPoint x="300.14" y="175.39000000000001"/>
            </Array>
          </mxGeometry>
        </mxCell>
        <mxCell id="L1meJ5uZWwkOYdYvXUN--43" value="DATA" style="edgeStyle=orthogonalEdgeStyle;rounded=0;orthogonalLoop=1;jettySize=auto;html=1;exitX=0.25;exitY=0;exitDx=0;exitDy=0;labelPosition=center;verticalLabelPosition=middle;align=center;verticalAlign=middle;horizontal=0;" edge="1" parent="1">
          <mxGeometry relative="1" as="geometry">
            <mxPoint x="339.9971428571429" y="200.10428571428568" as="sourcePoint"/>
            <mxPoint x="340.56857142857143" y="150.39000000000001" as="targetPoint"/>
            <Array as="points">
              <mxPoint x="340.03238095238095" y="160.29"/>
              <mxPoint x="340.03238095238095" y="160.29"/>
            </Array>
          </mxGeometry>
        </mxCell>
        <mxCell id="L1meJ5uZWwkOYdYvXUN--44" value="GND" style="edgeStyle=orthogonalEdgeStyle;rounded=0;orthogonalLoop=1;jettySize=auto;html=1;exitX=0.25;exitY=0;exitDx=0;exitDy=0;labelPosition=center;verticalLabelPosition=middle;align=center;verticalAlign=middle;horizontal=0;" edge="1" parent="1">
          <mxGeometry relative="1" as="geometry">
            <mxPoint x="359.9971428571429" y="200.10428571428568" as="sourcePoint"/>
            <mxPoint x="360.56857142857143" y="150.39000000000001" as="targetPoint"/>
            <Array as="points">
              <mxPoint x="360.03238095238095" y="160.29"/>
              <mxPoint x="360.03238095238095" y="160.29"/>
            </Array>
          </mxGeometry>
        </mxCell>
        <mxCell id="L1meJ5uZWwkOYdYvXUN--48" value="10V" style="edgeStyle=orthogonalEdgeStyle;rounded=0;orthogonalLoop=1;jettySize=auto;html=1;exitX=0.5;exitY=0;exitDx=0;exitDy=0;entryX=0.25;entryY=1;entryDx=0;entryDy=0;" edge="1" parent="1" source="L1meJ5uZWwkOYdYvXUN--45" target="L1meJ5uZWwkOYdYvXUN--1">
          <mxGeometry relative="1" as="geometry"/>
        </mxCell>
        <mxCell id="L1meJ5uZWwkOYdYvXUN--45" value="24V to 10V Buck Converter" style="whiteSpace=wrap;html=1;aspect=fixed;" vertex="1" parent="1">
          <mxGeometry x="180" y="710" width="80" height="80" as="geometry"/>
        </mxCell>
        <mxCell id="L1meJ5uZWwkOYdYvXUN--49" value="5V" style="edgeStyle=orthogonalEdgeStyle;rounded=0;orthogonalLoop=1;jettySize=auto;html=1;exitX=0.5;exitY=0;exitDx=0;exitDy=0;entryX=0.5;entryY=1;entryDx=0;entryDy=0;" edge="1" parent="1" source="L1meJ5uZWwkOYdYvXUN--46" target="L1meJ5uZWwkOYdYvXUN--1">
          <mxGeometry relative="1" as="geometry"/>
        </mxCell>
        <mxCell id="L1meJ5uZWwkOYdYvXUN--57" value="5V" style="edgeStyle=orthogonalEdgeStyle;rounded=0;orthogonalLoop=1;jettySize=auto;html=1;exitX=0.75;exitY=1;exitDx=0;exitDy=0;entryX=0.25;entryY=0;entryDx=0;entryDy=0;horizontal=0;" edge="1" parent="1" source="L1meJ5uZWwkOYdYvXUN--46" target="L1meJ5uZWwkOYdYvXUN--56">
          <mxGeometry relative="1" as="geometry">
            <Array as="points">
              <mxPoint x="340" y="819"/>
            </Array>
          </mxGeometry>
        </mxCell>
        <mxCell id="L1meJ5uZWwkOYdYvXUN--46" value="24V to 5V Buck Converter" style="whiteSpace=wrap;html=1;aspect=fixed;" vertex="1" parent="1">
          <mxGeometry x="280" y="710" width="80" height="80" as="geometry"/>
        </mxCell>
        <mxCell id="L1meJ5uZWwkOYdYvXUN--50" value="DATA" style="edgeStyle=orthogonalEdgeStyle;rounded=0;orthogonalLoop=1;jettySize=auto;html=1;exitX=0.5;exitY=0;exitDx=0;exitDy=0;entryX=0.75;entryY=1;entryDx=0;entryDy=0;" edge="1" parent="1" source="L1meJ5uZWwkOYdYvXUN--47" target="L1meJ5uZWwkOYdYvXUN--1">
          <mxGeometry relative="1" as="geometry"/>
        </mxCell>
        <mxCell id="L1meJ5uZWwkOYdYvXUN--47" value="Tri-State Buffer" style="whiteSpace=wrap;html=1;aspect=fixed;" vertex="1" parent="1">
          <mxGeometry x="390" y="710" width="80" height="80" as="geometry"/>
        </mxCell>
        <mxCell id="L1meJ5uZWwkOYdYvXUN--52" value="24V" style="edgeStyle=orthogonalEdgeStyle;rounded=0;orthogonalLoop=1;jettySize=auto;html=1;exitX=0.75;exitY=0;exitDx=0;exitDy=0;entryX=0.5;entryY=1;entryDx=0;entryDy=0;" edge="1" parent="1" source="L1meJ5uZWwkOYdYvXUN--51" target="L1meJ5uZWwkOYdYvXUN--46">
          <mxGeometry relative="1" as="geometry"/>
        </mxCell>
        <mxCell id="L1meJ5uZWwkOYdYvXUN--53" value="24V" style="edgeStyle=orthogonalEdgeStyle;rounded=0;orthogonalLoop=1;jettySize=auto;html=1;exitX=0.5;exitY=0;exitDx=0;exitDy=0;entryX=0.5;entryY=1;entryDx=0;entryDy=0;horizontal=0;" edge="1" parent="1" source="L1meJ5uZWwkOYdYvXUN--51" target="L1meJ5uZWwkOYdYvXUN--45">
          <mxGeometry relative="1" as="geometry"/>
        </mxCell>
        <mxCell id="L1meJ5uZWwkOYdYvXUN--54" value="24V" style="edgeStyle=orthogonalEdgeStyle;rounded=0;orthogonalLoop=1;jettySize=auto;html=1;exitX=0.25;exitY=0;exitDx=0;exitDy=0;entryX=0;entryY=0.75;entryDx=0;entryDy=0;" edge="1" parent="1" source="L1meJ5uZWwkOYdYvXUN--51" target="L1meJ5uZWwkOYdYvXUN--1">
          <mxGeometry relative="1" as="geometry">
            <Array as="points">
              <mxPoint x="200" y="820"/>
              <mxPoint x="150" y="820"/>
              <mxPoint x="150" y="590"/>
            </Array>
          </mxGeometry>
        </mxCell>
        <mxCell id="L1meJ5uZWwkOYdYvXUN--51" value="120vAC to 24V @10 AMP Power Supply" style="whiteSpace=wrap;html=1;aspect=fixed;" vertex="1" parent="1">
          <mxGeometry x="180" y="850" width="80" height="80" as="geometry"/>
        </mxCell>
        <mxCell id="L1meJ5uZWwkOYdYvXUN--59" value="DATA" style="edgeStyle=orthogonalEdgeStyle;rounded=0;orthogonalLoop=1;jettySize=auto;html=1;exitX=0.75;exitY=0;exitDx=0;exitDy=0;entryX=0.5;entryY=1;entryDx=0;entryDy=0;horizontal=0;" edge="1" parent="1" source="L1meJ5uZWwkOYdYvXUN--56" target="L1meJ5uZWwkOYdYvXUN--47">
          <mxGeometry relative="1" as="geometry">
            <Array as="points">
              <mxPoint x="430" y="848"/>
            </Array>
          </mxGeometry>
        </mxCell>
        <mxCell id="L1meJ5uZWwkOYdYvXUN--56" value="Raspberry Pi 4" style="rounded=0;whiteSpace=wrap;html=1;" vertex="1" parent="1">
          <mxGeometry x="293" y="848" width="190" height="80" as="geometry"/>
        </mxCell>
      </root>
    </mxGraphModel>
  </diagram>
</mxfile>
